<svg xmlns="http://www.w3.org/2000/svg" width="131" height="42" viewBox="0 0 131 42">
  <g id="RealEzy_Logo_Final" transform="translate(-19.5 -20.875)">
    <g id="Group_39039" data-name="Group 39039" transform="translate(47.777 40.332)">
      <g id="Group_39038" data-name="Group 39038" transform="translate(0 0)">
        <g id="Group_39037" data-name="Group 39037">
          <path id="Path_48773" data-name="Path 48773" d="M90.727,76.75a.292.292,0,0,0,.292-.292V71.629a3.439,3.439,0,0,0-1.593-2.9L87.17,67.29v9.173a.292.292,0,0,0,.292.292h3.266Z" transform="translate(-87.17 -67.29)" fill="#26aae1"/>
        </g>
      </g>
    </g>
    <g id="Group_39040" data-name="Group 39040" transform="translate(19.5 20.875)">
      <path id="Path_48774" data-name="Path 48774" d="M27.959,47.748a1.376,1.376,0,0,0-1.373-1.373H24.312a2.063,2.063,0,0,1-2.066-2.062V33.687a4.386,4.386,0,0,1,2.307-3.866l10.512-5.67a4.332,4.332,0,0,1,6.388,3.811v2.417L44.2,28.622v-.663a7.08,7.08,0,0,0-10.44-6.228L23.248,27.409A7.128,7.128,0,0,0,19.5,33.687V44.313a4.811,4.811,0,0,0,4.812,4.808H26.59A1.37,1.37,0,0,0,27.959,47.748Z" transform="translate(-19.5 -20.875)" fill="#1e4595"/>
      <path id="Path_48775" data-name="Path 48775" d="M49.362,59.653v6.038A2.069,2.069,0,0,1,47.3,67.757H41.567L33.6,75.827a1.373,1.373,0,0,0,.976,2.336,1.352,1.352,0,0,0,.976-.41L42.712,70.5h4.58A4.818,4.818,0,0,0,52.1,65.687V57.9Z" transform="translate(-27.413 -42.257)" fill="#1e4595"/>
    </g>
    <g id="Group_39041" data-name="Group 39041" transform="translate(25.605 32.388)">
      <path id="Path_48776" data-name="Path 48776" d="M39.062,50.429H34.634a.684.684,0,0,1-.684-.684v-.761a.684.684,0,0,1,.684-.684h4.432a.684.684,0,0,1,.684.684v.761A.685.685,0,0,1,39.062,50.429Z" transform="translate(-33.95 -48.3)" fill="#1e4595"/>
    </g>
    <g id="Group_39042" data-name="Group 39042" transform="translate(25.605 36.871)">
      <path id="Path_48777" data-name="Path 48777" d="M39.062,61.109H34.634a.684.684,0,0,1-.684-.684v-.761a.684.684,0,0,1,.684-.684h4.432a.684.684,0,0,1,.684.684v.761A.688.688,0,0,1,39.062,61.109Z" transform="translate(-33.95 -58.98)" fill="#1e4595"/>
    </g>
    <g id="Group_39043" data-name="Group 39043" transform="translate(25.605 41.351)">
      <path id="Path_48778" data-name="Path 48778" d="M39.062,71.779H34.634a.684.684,0,0,1-.684-.684v-.761a.684.684,0,0,1,.684-.684h4.432a.684.684,0,0,1,.684.684v.761A.688.688,0,0,1,39.062,71.779Z" transform="translate(-33.95 -69.65)" fill="#1e4595"/>
    </g>
    <g id="Group_39044" data-name="Group 39044" transform="translate(34.634 30.397)">
      <path id="Path_48779" data-name="Path 48779" d="M64.632,94.532h-4.5a2.065,2.065,0,0,1-2.062-2.062v-.3H55.32v.3a4.81,4.81,0,0,0,4.808,4.8h3.405l7.005,6.654a1.36,1.36,0,0,0,.946.376,1.371,1.371,0,0,0,.946-2.366Z" transform="translate(-55.32 -71.826)" fill="#26aae1"/>
      <path id="Path_48780" data-name="Path 48780" d="M76.3,48.338,71.24,45.127a7.155,7.155,0,0,0-7.673.017l-4.986,3.194A7.047,7.047,0,0,0,55.32,54.3V57.87h2.746V54.3a4.324,4.324,0,0,1,2-3.655l4.986-3.194a4.4,4.4,0,0,1,4.719-.008l5.057,3.211a4.32,4.32,0,0,1,2.011,3.663V64.685A2.045,2.045,0,0,1,74.8,66.725H74.02a1.373,1.373,0,1,0,0,2.746H74.8a4.791,4.791,0,0,0,4.787-4.787V54.316A7.037,7.037,0,0,0,76.3,48.338Z" transform="translate(-55.32 -44.02)" fill="#26aae1"/>
    </g>
    <g id="Group_39047" data-name="Group 39047" transform="translate(64.046 37.774)">
      <g id="Group_39045" data-name="Group 39045" transform="translate(0 0)">
        <path id="Path_48781" data-name="Path 48781" d="M139.721,77.142l-4.605-5.133a4.842,4.842,0,0,0,3.11-1.72,5.426,5.426,0,0,0,1.1-3.384,5.291,5.291,0,0,0-1.546-3.807,5.7,5.7,0,0,0-4.272-1.593q-1.236,0-3.735-.013t-3.739-.013a.151.151,0,0,0-.152.152V77.7a.151.151,0,0,0,.152.152H128.6a.151.151,0,0,0,.152-.152V72.309h3.173l4.838,5.5a.151.151,0,0,0,.114.051h3a.149.149,0,0,0,.131-.076.162.162,0,0,0,0-.152ZM136.4,66.951a2.724,2.724,0,0,1-.739,1.935,2.872,2.872,0,0,1-2.18.777h-4.732V64.146h4.753a2.728,2.728,0,0,1,2.155.832A2.89,2.89,0,0,1,136.4,66.951Z" transform="translate(-125.88 -61.48)" fill="#1e4595"/>
        <path id="Path_48782" data-name="Path 48782" d="M167.148,72.06a6.224,6.224,0,0,0-4.381,10.508,6.247,6.247,0,0,0,4.542,1.669,7.666,7.666,0,0,0,2.751-.515,5.767,5.767,0,0,0,2.222-1.462.152.152,0,0,0,0-.211l-1.538-1.491a.14.14,0,0,0-.11-.042.158.158,0,0,0-.11.051,3.342,3.342,0,0,1-1.373.841,5.31,5.31,0,0,1-1.8.325,3.838,3.838,0,0,1-2.438-.748,2.819,2.819,0,0,1-1.073-1.791h9a.152.152,0,0,0,.152-.139c.215-2.265-.22-4.018-1.3-5.205A5.865,5.865,0,0,0,167.148,72.06ZM170.4,76.9h-6.5a3.045,3.045,0,0,1,1.124-1.741,3.97,3.97,0,0,1,4.445,0A2.467,2.467,0,0,1,170.4,76.9Z" transform="translate(-146.196 -67.59)" fill="#1e4595"/>
        <path id="Path_48783" data-name="Path 48783" d="M204.845,72.429H202.55a.153.153,0,0,0-.152.148l-.051,1.31a4.032,4.032,0,0,0-1.377-1.141,5.013,5.013,0,0,0-2.341-.566,6.008,6.008,0,0,0-4.288,1.614,5.827,5.827,0,0,0-1.711,4.432,6.029,6.029,0,0,0,1.673,4.512,5.8,5.8,0,0,0,4.2,1.6,5.3,5.3,0,0,0,2.4-.566,3.743,3.743,0,0,0,1.449-1.221l.084,1.344a.153.153,0,0,0,.152.144h2.248a.151.151,0,0,0,.152-.152V72.581A.145.145,0,0,0,204.845,72.429ZM202.255,79a5.088,5.088,0,0,1-.579,1.411,2.817,2.817,0,0,1-1.132,1.022,3.707,3.707,0,0,1-1.728.4,3.455,3.455,0,0,1-2.505-.989,3.524,3.524,0,0,1-1.01-2.62,3.4,3.4,0,0,1,3.519-3.583,3.645,3.645,0,0,1,1.728.4,2.817,2.817,0,0,1,1.132,1.022,5.116,5.116,0,0,1,.579,1.424A3.23,3.23,0,0,1,202.255,79Z" transform="translate(-164.428 -67.659)" fill="#1e4595"/>
        <path id="Path_48784" data-name="Path 48784" d="M231.514,61.59h-2.362a.151.151,0,0,0-.152.152V77.768a.151.151,0,0,0,.152.152h2.362a.151.151,0,0,0,.152-.152V61.742A.151.151,0,0,0,231.514,61.59Z" transform="translate(-185.431 -61.544)" fill="#1e4595"/>
      </g>
      <g id="Group_39046" data-name="Group 39046" transform="translate(49.644 0.025)">
        <path id="Path_48785" data-name="Path 48785" d="M255.388,75.064h-9.135V71.059h8.7a.151.151,0,0,0,.152-.152V68.524a.151.151,0,0,0-.152-.152h-8.7V64.345h9.067a.151.151,0,0,0,.152-.152v-2.5a.151.151,0,0,0-.152-.152H243.532a.151.151,0,0,0-.152.152V77.739a.151.151,0,0,0,.152.152h11.855a.151.151,0,0,0,.152-.152V75.217A.151.151,0,0,0,255.388,75.064Z" transform="translate(-243.38 -61.54)" fill="#26aae1"/>
        <path id="Path_48786" data-name="Path 48786" d="M285.616,81.762h-5.433l5.514-7.643a.172.172,0,0,0,.03-.089v-1.1a.151.151,0,0,0-.152-.152h-8.919a.151.151,0,0,0-.152.152v2.155a.151.151,0,0,0,.152.152h5.159l-5.674,7.943a.159.159,0,0,0-.03.089v.963a.151.151,0,0,0,.152.152h9.354a.151.151,0,0,0,.152-.152v-2.32A.151.151,0,0,0,285.616,81.762Z" transform="translate(-262.281 -68.031)" fill="#26aae1"/>
        <path id="Path_48787" data-name="Path 48787" d="M313.76,72.832a.155.155,0,0,0-.127-.068H311a.148.148,0,0,0-.139.093l-2.248,5.391-1.065,2.776-.989-2.818L304.6,72.861a.155.155,0,0,0-.144-.1h-2.75a.154.154,0,0,0-.127.068.158.158,0,0,0-.017.144l4.5,11.082-3.646,8.826a.157.157,0,0,0,.013.144.154.154,0,0,0,.127.068h2.615A.148.148,0,0,0,305.31,93l8.463-20.023A.146.146,0,0,0,313.76,72.832Z" transform="translate(-276.977 -68.019)" fill="#26aae1"/>
      </g>
    </g>
  </g>
</svg>
